<mxfile host="app.diagrams.net" modified="2023-05-28T13:09:58.089Z" agent="Mozilla/5.0 (Windows NT 10.0; Win64; x64) AppleWebKit/537.36 (KHTML, like Gecko) Chrome/113.0.0.0 Safari/537.36" version="21.3.5" etag="7N8YAH4RRk2Cjp4lYVkq" type="device">
  <diagram id="RWRZetnBqy2lrlB_OaMS" name="Страница 1">
    <mxGraphModel dx="1434" dy="2003" grid="1" gridSize="10" guides="1" tooltips="1" connect="1" arrows="1" fold="1" page="1" pageScale="1" pageWidth="827" pageHeight="1169" math="0" shadow="0">
      <root>
        <mxCell id="0" />
        <mxCell id="1" parent="0" />
        <mxCell id="jvKjf4ukHBIoRC0gIm7M-1" value="Клієнт" style="shape=umlActor;verticalLabelPosition=bottom;verticalAlign=top;html=1;" vertex="1" parent="1">
          <mxGeometry x="90" y="220" width="20" height="40" as="geometry" />
        </mxCell>
        <mxCell id="jvKjf4ukHBIoRC0gIm7M-2" value="Пристрій" style="verticalAlign=top;align=left;spacingTop=8;spacingLeft=2;spacingRight=12;shape=cube;size=10;direction=south;fontStyle=4;html=1;whiteSpace=wrap;" vertex="1" parent="1">
          <mxGeometry x="230" y="190" width="150" height="100" as="geometry" />
        </mxCell>
        <mxCell id="jvKjf4ukHBIoRC0gIm7M-3" value="Браузер" style="shape=module;align=left;spacingLeft=20;align=center;verticalAlign=top;whiteSpace=wrap;html=1;" vertex="1" parent="1">
          <mxGeometry x="250" y="230" width="110" height="50" as="geometry" />
        </mxCell>
        <mxCell id="jvKjf4ukHBIoRC0gIm7M-4" value="Клавіатура/екран" style="html=1;verticalAlign=bottom;endArrow=block;edgeStyle=elbowEdgeStyle;elbow=vertical;curved=0;rounded=0;entryX=0.086;entryY=0.5;entryDx=0;entryDy=0;entryPerimeter=0;" edge="1" parent="1" target="jvKjf4ukHBIoRC0gIm7M-3">
          <mxGeometry width="80" relative="1" as="geometry">
            <mxPoint x="120" y="254.5" as="sourcePoint" />
            <mxPoint x="200" y="254.5" as="targetPoint" />
          </mxGeometry>
        </mxCell>
        <mxCell id="jvKjf4ukHBIoRC0gIm7M-18" value="Ріелтор" style="shape=umlActor;verticalLabelPosition=bottom;verticalAlign=top;html=1;" vertex="1" parent="1">
          <mxGeometry x="90" y="105" width="20" height="40" as="geometry" />
        </mxCell>
        <mxCell id="jvKjf4ukHBIoRC0gIm7M-19" value="Пристрій" style="verticalAlign=top;align=left;spacingTop=8;spacingLeft=2;spacingRight=12;shape=cube;size=10;direction=south;fontStyle=4;html=1;whiteSpace=wrap;" vertex="1" parent="1">
          <mxGeometry x="230" y="60" width="150" height="100" as="geometry" />
        </mxCell>
        <mxCell id="jvKjf4ukHBIoRC0gIm7M-20" value="Браузер" style="shape=module;align=left;spacingLeft=20;align=center;verticalAlign=top;whiteSpace=wrap;html=1;" vertex="1" parent="1">
          <mxGeometry x="240" y="100" width="120" height="50" as="geometry" />
        </mxCell>
        <mxCell id="jvKjf4ukHBIoRC0gIm7M-21" value="Клавіатура/екран" style="html=1;verticalAlign=bottom;endArrow=block;edgeStyle=elbowEdgeStyle;elbow=vertical;curved=0;rounded=0;entryX=0.086;entryY=0.5;entryDx=0;entryDy=0;entryPerimeter=0;" edge="1" parent="1" target="jvKjf4ukHBIoRC0gIm7M-20">
          <mxGeometry width="80" relative="1" as="geometry">
            <mxPoint x="120" y="124.5" as="sourcePoint" />
            <mxPoint x="200" y="124.5" as="targetPoint" />
          </mxGeometry>
        </mxCell>
        <mxCell id="jvKjf4ukHBIoRC0gIm7M-23" value="Браузер" style="verticalAlign=top;align=left;spacingTop=8;spacingLeft=2;spacingRight=12;shape=cube;size=10;direction=south;fontStyle=4;html=1;whiteSpace=wrap;" vertex="1" parent="1">
          <mxGeometry x="470" y="130" width="150" height="100" as="geometry" />
        </mxCell>
        <mxCell id="jvKjf4ukHBIoRC0gIm7M-24" value="Авторизація" style="shape=module;align=left;spacingLeft=20;align=center;verticalAlign=top;whiteSpace=wrap;html=1;" vertex="1" parent="1">
          <mxGeometry x="490" y="170" width="100" height="50" as="geometry" />
        </mxCell>
        <mxCell id="jvKjf4ukHBIoRC0gIm7M-25" value="" style="endArrow=block;startArrow=block;endFill=1;startFill=1;html=1;rounded=0;entryX=0.11;entryY=0.42;entryDx=0;entryDy=0;entryPerimeter=0;exitX=1;exitY=0.5;exitDx=0;exitDy=0;" edge="1" parent="1" source="jvKjf4ukHBIoRC0gIm7M-20" target="jvKjf4ukHBIoRC0gIm7M-24">
          <mxGeometry width="160" relative="1" as="geometry">
            <mxPoint x="350" y="124.5" as="sourcePoint" />
            <mxPoint x="519" y="124.5" as="targetPoint" />
          </mxGeometry>
        </mxCell>
        <mxCell id="jvKjf4ukHBIoRC0gIm7M-26" value="" style="endArrow=block;startArrow=block;endFill=1;startFill=1;html=1;rounded=0;entryX=0.12;entryY=0.6;entryDx=0;entryDy=0;entryPerimeter=0;exitX=1;exitY=0.5;exitDx=0;exitDy=0;" edge="1" parent="1" source="jvKjf4ukHBIoRC0gIm7M-3" target="jvKjf4ukHBIoRC0gIm7M-24">
          <mxGeometry width="160" relative="1" as="geometry">
            <mxPoint x="400" y="240" as="sourcePoint" />
            <mxPoint x="569" y="240" as="targetPoint" />
          </mxGeometry>
        </mxCell>
        <mxCell id="jvKjf4ukHBIoRC0gIm7M-27" value="HTTP/HTTPS &lt;br&gt;connection" style="text;html=1;align=center;verticalAlign=middle;resizable=0;points=[];autosize=1;strokeColor=none;fillColor=none;" vertex="1" parent="1">
          <mxGeometry x="380" y="235" width="100" height="40" as="geometry" />
        </mxCell>
        <mxCell id="jvKjf4ukHBIoRC0gIm7M-28" value="HTTP/HTTPS &lt;br&gt;connection" style="text;html=1;align=center;verticalAlign=middle;resizable=0;points=[];autosize=1;strokeColor=none;fillColor=none;" vertex="1" parent="1">
          <mxGeometry x="370" y="110" width="100" height="40" as="geometry" />
        </mxCell>
        <mxCell id="jvKjf4ukHBIoRC0gIm7M-29" value="Сторінка для користувача" style="verticalAlign=top;align=left;spacingTop=8;spacingLeft=2;spacingRight=12;shape=cube;size=10;direction=south;fontStyle=4;html=1;whiteSpace=wrap;" vertex="1" parent="1">
          <mxGeometry x="710" y="235" width="280" height="185" as="geometry" />
        </mxCell>
        <mxCell id="jvKjf4ukHBIoRC0gIm7M-30" value="Сторінка адміністратора" style="verticalAlign=top;align=left;spacingTop=8;spacingLeft=2;spacingRight=12;shape=cube;size=10;direction=south;fontStyle=4;html=1;whiteSpace=wrap;" vertex="1" parent="1">
          <mxGeometry x="710" y="-10" width="270" height="170" as="geometry" />
        </mxCell>
        <mxCell id="jvKjf4ukHBIoRC0gIm7M-31" value="" style="endArrow=block;startArrow=block;endFill=1;startFill=1;html=1;rounded=0;entryX=0.476;entryY=1.007;entryDx=0;entryDy=0;entryPerimeter=0;exitX=1;exitY=0.5;exitDx=0;exitDy=0;" edge="1" parent="1" source="jvKjf4ukHBIoRC0gIm7M-24" target="jvKjf4ukHBIoRC0gIm7M-30">
          <mxGeometry width="160" relative="1" as="geometry">
            <mxPoint x="514" y="115" as="sourcePoint" />
            <mxPoint x="656" y="60" as="targetPoint" />
          </mxGeometry>
        </mxCell>
        <mxCell id="jvKjf4ukHBIoRC0gIm7M-32" value="" style="endArrow=block;startArrow=block;endFill=1;startFill=1;html=1;rounded=0;entryX=0.569;entryY=1.014;entryDx=0;entryDy=0;entryPerimeter=0;exitX=1;exitY=0.5;exitDx=0;exitDy=0;" edge="1" parent="1" source="jvKjf4ukHBIoRC0gIm7M-24" target="jvKjf4ukHBIoRC0gIm7M-29">
          <mxGeometry width="160" relative="1" as="geometry">
            <mxPoint x="560" y="360" as="sourcePoint" />
            <mxPoint x="702" y="305" as="targetPoint" />
          </mxGeometry>
        </mxCell>
        <mxCell id="jvKjf4ukHBIoRC0gIm7M-33" value="Додати інформацію про житло до БД" style="shape=module;align=left;spacingLeft=20;align=center;verticalAlign=top;whiteSpace=wrap;html=1;" vertex="1" parent="1">
          <mxGeometry x="727" y="30" width="113" height="50" as="geometry" />
        </mxCell>
        <mxCell id="jvKjf4ukHBIoRC0gIm7M-34" value="Підібрати житло за вимогами" style="shape=module;align=left;spacingLeft=20;align=center;verticalAlign=top;whiteSpace=wrap;html=1;" vertex="1" parent="1">
          <mxGeometry x="805" y="90" width="135" height="50" as="geometry" />
        </mxCell>
        <mxCell id="jvKjf4ukHBIoRC0gIm7M-35" value="Надіслати вимоги до житла" style="shape=module;align=left;spacingLeft=20;align=center;verticalAlign=top;whiteSpace=wrap;html=1;" vertex="1" parent="1">
          <mxGeometry x="770" y="285" width="143" height="45" as="geometry" />
        </mxCell>
        <mxCell id="jvKjf4ukHBIoRC0gIm7M-36" value="Сплатити за оренду" style="shape=module;align=left;spacingLeft=20;align=center;verticalAlign=top;whiteSpace=wrap;html=1;" vertex="1" parent="1">
          <mxGeometry x="733.5" y="350" width="106.5" height="50" as="geometry" />
        </mxCell>
        <mxCell id="jvKjf4ukHBIoRC0gIm7M-37" value="Подивитись перелік вільного житла" style="shape=module;align=left;spacingLeft=20;align=center;verticalAlign=top;whiteSpace=wrap;html=1;" vertex="1" parent="1">
          <mxGeometry x="850" y="350" width="120" height="50" as="geometry" />
        </mxCell>
        <mxCell id="jvKjf4ukHBIoRC0gIm7M-38" value="HTTP/HTTPS &lt;br&gt;connection" style="text;html=1;align=center;verticalAlign=middle;resizable=0;points=[];autosize=1;strokeColor=none;fillColor=none;" vertex="1" parent="1">
          <mxGeometry x="590" y="80" width="100" height="40" as="geometry" />
        </mxCell>
        <mxCell id="jvKjf4ukHBIoRC0gIm7M-39" value="HTTP/HTTPS &lt;br&gt;connection" style="text;html=1;align=center;verticalAlign=middle;resizable=0;points=[];autosize=1;strokeColor=none;fillColor=none;" vertex="1" parent="1">
          <mxGeometry x="570" y="260" width="100" height="40" as="geometry" />
        </mxCell>
        <mxCell id="jvKjf4ukHBIoRC0gIm7M-40" value="TCP/IP" style="text;html=1;align=center;verticalAlign=middle;resizable=0;points=[];autosize=1;strokeColor=none;fillColor=none;" vertex="1" parent="1">
          <mxGeometry x="1030" y="240" width="60" height="30" as="geometry" />
        </mxCell>
        <mxCell id="jvKjf4ukHBIoRC0gIm7M-42" value="Сервер бази даних" style="verticalAlign=top;align=left;spacingTop=8;spacingLeft=2;spacingRight=12;shape=cube;size=10;direction=south;fontStyle=4;html=1;whiteSpace=wrap;" vertex="1" parent="1">
          <mxGeometry x="1130" y="120" width="180" height="120" as="geometry" />
        </mxCell>
        <mxCell id="jvKjf4ukHBIoRC0gIm7M-44" value="База даних" style="shape=module;align=left;spacingLeft=20;align=center;verticalAlign=top;whiteSpace=wrap;html=1;" vertex="1" parent="1">
          <mxGeometry x="1150" y="170" width="109" height="50" as="geometry" />
        </mxCell>
        <mxCell id="jvKjf4ukHBIoRC0gIm7M-45" value="" style="endArrow=block;startArrow=block;endFill=1;startFill=1;html=1;rounded=0;entryX=0.101;entryY=0.52;entryDx=0;entryDy=0;entryPerimeter=0;exitX=0.541;exitY=-0.011;exitDx=0;exitDy=0;exitPerimeter=0;" edge="1" parent="1" source="jvKjf4ukHBIoRC0gIm7M-29" target="jvKjf4ukHBIoRC0gIm7M-44">
          <mxGeometry width="160" relative="1" as="geometry">
            <mxPoint x="1000" y="310" as="sourcePoint" />
            <mxPoint x="1177" y="426" as="targetPoint" />
          </mxGeometry>
        </mxCell>
        <mxCell id="jvKjf4ukHBIoRC0gIm7M-41" value="" style="endArrow=block;startArrow=block;endFill=1;startFill=1;html=1;rounded=0;entryX=0.101;entryY=0.54;entryDx=0;entryDy=0;entryPerimeter=0;exitX=0.524;exitY=-0.011;exitDx=0;exitDy=0;exitPerimeter=0;" edge="1" parent="1" source="jvKjf4ukHBIoRC0gIm7M-30" target="jvKjf4ukHBIoRC0gIm7M-44">
          <mxGeometry width="160" relative="1" as="geometry">
            <mxPoint x="805" y="210" as="sourcePoint" />
            <mxPoint x="965" y="210" as="targetPoint" />
          </mxGeometry>
        </mxCell>
        <mxCell id="jvKjf4ukHBIoRC0gIm7M-46" value="TCP/IP" style="text;html=1;align=center;verticalAlign=middle;resizable=0;points=[];autosize=1;strokeColor=none;fillColor=none;" vertex="1" parent="1">
          <mxGeometry x="1040" y="95" width="60" height="30" as="geometry" />
        </mxCell>
      </root>
    </mxGraphModel>
  </diagram>
</mxfile>
